<svg width="27" height="17" viewBox="0 0 37 17" fill="none" xmlns="http://www.w3.org/2000/svg">
<path d="M27.5894 16.6645C27.3627 16.4408 27.2493 16.1736 27.2493 15.8629C27.2493 15.5523 27.3501 15.2975 27.5516 15.0987L33.1073 9.61842H1.13381C0.806262 9.61842 0.535408 9.51279 0.321245 9.30154C0.107082 9.09028 0 8.8231 0 8.5C0 8.1769 0.107082 7.90972 0.321245 7.69847C0.535408 7.48721 0.806262 7.38158 1.13381 7.38158H33.1073L27.5138 1.86404C27.2871 1.64035 27.18 1.37939 27.1926 1.08114C27.2052 0.782895 27.3249 0.52193 27.5516 0.298245C27.7784 0.0994149 28.0492 0 28.3642 0C28.6791 0 28.9374 0.0994149 29.139 0.298245L36.6599 7.71711C36.7858 7.84137 36.874 7.96564 36.9244 8.08991C36.9748 8.21418 37 8.35088 37 8.5C37 8.64912 36.9748 8.78582 36.9244 8.91009C36.874 9.03436 36.7858 9.15863 36.6599 9.2829L29.1767 16.6645C28.95 16.8882 28.6854 17 28.3831 17C28.0807 17 27.8162 16.8882 27.5894 16.6645Z" fill="black" fill-opacity="0.5"/>
</svg>
