<svg width="27" height="17" viewBox="0 0 37 17" fill="none" xmlns="http://www.w3.org/2000/svg">
<path d="M9.41058 0.335527C9.63734 0.559212 9.75073 0.826387 9.75073 1.13706C9.75073 1.44773 9.64994 1.70249 9.44838 1.90132L3.89273 7.38158H35.8662C36.1937 7.38158 36.4646 7.48721 36.6788 7.69846C36.8929 7.90972 37 8.1769 37 8.5C37 8.8231 36.8929 9.09028 36.6788 9.30153C36.4646 9.51279 36.1937 9.61842 35.8662 9.61842H3.89273L9.48617 15.136C9.71293 15.3596 9.82001 15.6206 9.80742 15.9189C9.79482 16.2171 9.67514 16.4781 9.44838 16.7018C9.22161 16.9006 8.95076 17 8.63582 17C8.32087 17 8.06262 16.9006 7.86105 16.7018L0.340145 9.28289C0.214165 9.15863 0.12598 9.03436 0.075592 8.91009C0.0251999 8.78582 0 8.64912 0 8.5C0 8.35088 0.0251999 8.21418 0.075592 8.08991C0.12598 7.96564 0.214165 7.84137 0.340145 7.7171L7.82326 0.335527C8.05002 0.111843 8.31457 0 8.61692 0C8.91927 0 9.18382 0.111843 9.41058 0.335527Z" fill="black" fill-opacity="0.5"/>
</svg>
