<svg width="19" height="23" viewBox="0 0 19 23" fill="none" xmlns="http://www.w3.org/2000/svg">
<path d="M9.71529 22.966C9.10919 22.963 8.52859 22.7217 8.09894 22.2942C7.66929 21.8667 7.42508 21.2873 7.41909 20.6812H11.9886C11.9911 20.9866 11.9328 21.2895 11.8173 21.5722C11.6696 21.9112 11.4434 22.2103 11.1573 22.4446C10.8713 22.679 10.5337 22.842 10.1722 22.9203H10.1186C9.98583 22.9479 9.85083 22.9632 9.71529 22.966ZM18.8544 19.5388H0.576172V17.254L2.86095 16.1116V9.82848C2.80077 8.2167 3.16475 6.61736 3.91652 5.19038C4.28647 4.53609 4.79094 3.96769 5.39666 3.52265C6.00237 3.07762 6.69557 2.76608 7.43051 2.60857V0.118164H12.0001V2.60857C14.9463 3.31 16.5696 5.87352 16.5696 9.82848V16.1116L18.8544 17.254V19.5388Z" fill="url(#paint0_linear_5993_27082)"/>
<defs>
<linearGradient id="paint0_linear_5993_27082" x1="2.86095" y1="0.118164" x2="18.2832" y2="23.5372" gradientUnits="userSpaceOnUse">
<stop stop-color="#FFBC00"/>
<stop offset="1" stop-color="#F08200"/>
</linearGradient>
</defs>
</svg>
